<?xml version="1.0" encoding="utf-8"?>
<!-- Generator: Adobe Illustrator 25.0.0, SVG Export Plug-In . SVG Version: 6.00 Build 0)  -->
<svg version="1.1" id="Capa_1" xmlns="http://www.w3.org/2000/svg" xmlns:xlink="http://www.w3.org/1999/xlink" x="0px" y="0px"
	 viewBox="0 0 1920 1080" style="enable-background:new 0 0 1920 1080;" xml:space="preserve">
<style type="text/css">
	.st0{fill:#FFF680;stroke:#FFFFFF;stroke-miterlimit:10;}
</style>
<path class="st0" d="M1143.2,573.2c20.3-8.7,26.2-25.2,32.7-39.8c10.4-23.5,18.9-47.9,26.4-72.5c7.2-23.5,12.2-47.6,17.9-71.5
	c2.4-10.1,4.3-20.3,6.8-32.2c4.5,2,9.4,3.2,13.1,6c11.4,8.9,22.5,18.3,33.4,27.9c4.7,4.2,3.7,8.6,2.1,15
	c-7.5,30.1-14.5,60.4-19.2,91c-3.3,21.2-2.9,43-3.5,64.5c-0.2,6.6,1.6,13.3,2.7,21.4c18.3-11.7,25.4-29,30.7-46.3
	c10.5-34.3,19.8-68.9,28.7-103.7c4.7-18.4,7-37.4,11.3-56c4.3-18.6,9.8-37,15.1-56.6c8.3,3,14.4,4.5,19.8,7.2
	c23.7,12,23.2,12,19.1,37c-3.6,21.8-6.1,43.7-9.1,65.5c1.4,0.5,2.7,0.9,4.1,1.3c6.4-9.9,12.5-20,19.3-29.7
	c15.8-22.4,31.5-44.9,48.3-66.6c3.8-4.9,15.2-10.9,17.6-9.1c11.8,8.2,32.7,10.9,28.8,31.3c-4.8,25.5-11.4,50.6-17.8,75.8
	c-8.1,32.4-9.7,65.2-7.4,98.2c1.2,0.7,2.4,1.4,3.6,2.1c7.5-9.8,15.8-19.2,22.4-29.6c15.8-24.8,24.9-52,31.7-80.4
	c6.7-27.8,14.9-55.5,26.3-81.7c21.2-48.6,70-63.9,119.4-42.3c2.9-5.9,5.7-11.9,8.8-18.3c15.3,10,30.6,19.9,47.4,30.8
	c-50.3,89.5-57.8,185.7-51.7,283.9c15.4,0,31.1-1.2,46.5,0.3c20.9,2,41.8,2,60.8,15.6c25.9,18.5,22.7,32.6,14.9,59.6
	c-2,6.8-7.8,12.6-13,20.7c-26.3-42.9-67.6-49.4-112-53.5c-1.8,14.4-3.3,26.9-5,39.2c-2.9,20.9-7.6,40.8-23.2,57.1
	c-15.9,16.5-36.3,19.9-57.7,20c-29.8,0.1-57.2-8.9-84.7-20.1c-35.6-14.5-68-33.6-99.2-54.8c-6.8-4.6-12.5-12.4-15.8-19.9
	c-5.2-11.9,1.3-24.1,14.1-28.3c48.3-15.8,98.2-23,149-24.9c19.8-0.7,39.6-2.3,59.4-4.3c2.8-0.3,7.4-5.2,7.3-7.9
	c-0.3-33.5,1.3-66.8,7.2-99.9c0.2-0.9-0.8-1.9-2.5-5.4c-7.9,12.6-14.9,23.8-22,35c-6.1,9.6-11.6,19.7-19,28.2
	c-2.9,3.4-11,5.3-15.6,4c-8.4-2.3-16.4-6.9-24-11.5c-10.5-6.5-14.1-16.7-14-28.4c0.1-7.1,0-14.2,0-21.3c-1-0.4-2-0.8-3.1-1.2
	c-2.4,3.4-5.2,6.6-7.2,10.2c-12.6,22.1-23.1,45.6-43.2,63c-12.2,10.5-26.1,12-41.4,6c-14.9-5.9-15.8-19.2-16.3-30.5
	c-1.8-40.2-1.4-80.4,8.1-119.9c1.9-7.8,5.2-15.3,7.8-23c-0.9-0.6-1.8-1.1-2.7-1.7c-1.9,1.8-4.3,3.4-5.6,5.5
	c-15.6,24.8-32.4,48.9-45.7,74.8c-5,9.8-1.8,23.7-1.9,35.7c-0.2,24.9-0.1,49.9-0.1,77.9c-10.6-4.7-21-8.5-30.4-13.9
	c-7-4-13-9.7-18.9-15.3c-2.2-2-3.6-5.7-3.6-8.7c-0.3-15.9-0.1-31.7-0.2-47.6c0-2.1-1.1-4.1-2.5-9c-7.1,21.8-12.1,41.4-19.9,59.9
	c-8.6,20.4-17.7,41.2-30.4,59.3c-13.6,19.4-30.9,17.2-46.6-0.7c-13-14.7-17.3-31.6-18.8-49.9c-0.5-6.3-0.1-12.7-0.1-19.1
	c-1.2-0.4-2.3-0.8-3.5-1.2c-7.5,10.1-15,20.3-22.7,30.3c-9.6,12.5-20.2,23.9-35.8,29.6c-12.9,4.7-24.8,0.2-32.7-10.3
	c-15.9-21-14.1-44.7-12.5-68.4c0.9-14.3,1.6-28.9,4.8-42.8c4.9-21.5,11.9-42.5,18.1-63.7c1.3-4.6,3-9,4.6-13.7
	c-12.4-5.3-23.6-10.1-38-16.3c0,16.8,1.2,31.1-0.3,45.2c-2.9,26.7-7,53.3-11.3,79.9c-4.2,26.6-12.6,52.3-25.4,76.2
	c-14.5,27.1-28.3,54.6-55.4,73.3c-25.5,17.7-50.3,13-71.6-9.4c-17.5-18.4-21.6-40.2-21-63.7c0-1.5,0.1-3,0.1-4.5
	c0-0.3-0.4-0.6-2.5-3.4c-5.8,14-10.8,26.6-16.3,39c-10.8,24-21.1,48.4-33.4,71.8c-12.8,24.3-32.1,27.9-54.2,11.2
	c-10.5-7.9-20.2-16.3-19.7-32c1-29.8-0.1-59.6,0.2-89.4c0.1-11.1,1.8-22.1,2.8-33.2c-1.3-0.3-2.6-0.6-3.9-0.9
	c-5.8,12.9-11.8,25.8-17.3,38.9c-11.2,26.9-22,53.9-33.3,80.8c-7.3,17.2-19.8,21.5-29,19.7c-14.8-2.8-29.6-16.8-30.5-30.9
	c-0.9-15.3-0.5-30.6-0.8-45.9c0-1.4-0.8-2.7-2.1-6.8c-3.4,4.8-6.2,7.6-7.7,11c-8.7,18.5-15.5,38.1-26.1,55.6
	c-8.7,14.4-20,28.7-33.5,38.8c-13.9,10.4-30.8,6.8-45-4.3c-18.4-14.4-27.9-34-33-55.3c-11.4-47.2-0.8-92.5,16.8-136.5
	c8-20.1,20.5-38.3,38.8-51.4c14.3-10.2,34-13.5,48.6,6c17.8,23.8,22.5,50.4,18.2,79.2c-2.1,14-5.2,26.6-15.1,38.2
	c-12.7,15-28.2,21.5-47.4,22c-3.9,0.1-7.8,0.7-12.3,1c-6.6,26.1-2.2,51.5,5.2,76.4c3.5,12,14.7,13.6,24.5,2.6
	c12.2-13.6,25.3-27.8,32.5-44.1c22.9-51.8,38.5-105.8,46.2-161.8c1.4-10.2,4.2-20.3,6.6-31.9c-12.3,1.2-21.6,2.2-30.9,3
	c-16.4,1.4-19.3-0.9-24.3-18.5c18.3-2.2,36.7-4.5,55-6.7c6.6-30.9,13.3-60.4,19.1-90c2.2-11.1,8.2-15.5,19.2-16
	c11.3-0.4,33,9.5,34.9,19.5s-1.5,21-3.2,31.5c-2,12.1-4.6,24.1-7.1,36.9c12.2-2.7,22.3-5,32.5-7.1c19-4,18.7-6.9,23.2-24.4
	c7.3-28.6,17-56.8,28-84.3c6-14.9,26.7-17.5,42.3-7.9c4.2,2.6,8,5.7,11.7,8.9c4.8,4.1,5.8,8.1,3.4,14.9
	c-7.8,22.9-13.9,46.4-21.4,72.4c10.5-1.5,17.9-2.8,25.4-3.4c30.1-2.5,30.5,1.5,41.2,24.1c3.6,7.6-0.3,9.8-6.7,10.4
	c-18,1.7-36,2.8-53.9,4.6c-6.1,0.6-12,2.3-15.1,3c-23.3,84.6-21.9,169.2-27.5,257.1c7.2-8.5,13.2-14.1,17.2-20.8
	c24.1-40.5,40.5-84.3,55.5-128.4c12.3-36.2,25.3-71.6,49.7-102.3c11.4-14.4,23.8-26.4,44.3-25.5c22.9,1,39.2,14.5,39.5,36.3
	c0.4,25.4-1.1,50.4-6,75.5c-4.2,21.3-26.3,44.6-52.9,42.5c-21-1.7-24.7-6.3-23.4,22.6c1,22.5,0.7,45.2,9.4,66.9
	c3.5,8.8,7.8,10.6,14,4.2c14.2-14.4,29.9-28.1,40.8-44.6c19.6-29.7,33.2-62.4,41.4-96.9c2.2-9.1,1.8-18.8,2.4-28.2
	c2-30.2,3.7-60.4,6.2-90.5c0.5-6.4-2.2-8.5-7.4-10.9c-13-5.9-25.9-12.4-38.6-19c-2.1-1.1-3.2-4-5.6-7c18.7-15,36.8-29.6,55-44.1
	c1.5,0.3,3,0.6,4.5,0.9c3.3,15.2,7,30.4,9.9,45.7c1.1,5.9,2,11,9.6,12.2c15.1,2.4,30,5.6,45.1,7.6c16.9,2.3,25.6,14.4,31.7,26.8
	c2.8,5.7-1.9,15.6-4.7,23.1c-12.3,32.3-19.9,65.3-18.6,99.8C1141.4,541.2,1142.3,556.3,1143.2,573.2z M1425.7,670.7
	c23.4,10.2,39.6,27.4,63.8,31.8c15.7,2.9,30.7,9.5,46.1,14.1c20.7,6.2,47.2-3.6,57.9-21.6c1.4-2.3,0.7-5.7,2.1-7.9
	c9.2-14,14.2-28.8,10-45.4C1565.1,635.5,1481,647.1,1425.7,670.7z M1573.4,503c1.3,0.5,2.7,1.1,4,1.6c13.1-19.6,27.3-38.6,39-58.9
	c10-17.4,18.5-35.9,24.9-54.8c7.1-20.7,11.8-42.4,15.8-63.9c0.6-2.9-8.6-11-12.8-10.7c-24.4,1.8-37.2,18.7-47,37.9
	c-7.7,15-10.3,31.5-14.9,47.4c-6.9,23.8-9.4,47.5-10.4,71.7C1571.6,483.2,1572.9,493.1,1573.4,503z M715.3,624.1
	c28.8-61,61.8-120.6,67.5-190.1c-18.4,3.1-35.7,6.1-52.7,9C721.4,467.5,709.9,595.4,715.3,624.1z M560.7,584.9
	c36.4,4.5,55.2-13.7,49.8-45.2c-0.2-1.4,0.2-3,0.8-4.3c5.5-14.5-1.3-27.9-4.7-41.5c-0.2-0.9-6.1-1.9-6.9-0.9
	c-10.9,12.9-19.3,27.3-24.7,43C569.5,551.7,565.5,568,560.7,584.9z M997.1,438.3c-10,7.7-13.4,18-19,27.6
	c-10.2,17.7-17.9,35.8-22.5,55.4c-2.7,11.3-1,13.4,11.2,11.4c4.6-0.7,9.7-0.7,13.5-2.8c6.6-3.7,14-7.9,18.1-13.8
	c3.3-4.7,2.4-12.3,3-18.6c1.1-12.1-1.1-25.6,3.8-36.1C1011.1,448.9,1004,445.2,997.1,438.3z"/>
<path class="st0" d="M378.2,762.7c-5,26.9-15.9,48.8-36.9,65.4c-18.4,14.5-39.2,21.1-62.9,20.2c-51.7-2.1-93.5-23.9-128.6-59.5
	c-6.1-6.2-12.9-11.6-19-17.8c-18.4-18.8-12.9-42.5,12.8-50.4c11.9-3.7,24.9-5.1,37.5-5.5c27.3-1,54.7-0.7,82-0.8
	c16.7-0.1,33.5-1,50.1,0.3c11.9,1,14.4-2.5,14.7-13.4c1-30.5,3.6-61,5.3-86.4c-22.9-16.5-42.6-29.6-61-44.3
	c-20.8-16.6-32.3-39.5-39.4-63.9c-9.3-32-12.1-64.8-3.6-97.5c3.1-11.9,7.3-23.9,20.9-29.4c-6.8,75.1,20,135.4,81.3,184.3
	c2.8-4.5,5.5-6.8,5.6-9.2c1.9-39.2,3.2-78.5,5.5-117.8c0.6-10.1,3.7-20.1,5.9-30.1c3-13.5,5.6-27.1,9.4-40.4
	c6-20.8,14.8-40.3,31.2-55.9c12.5-11.9,26.6-17.4,43.9-13c19.5,4.9,33.9,16.1,44.4,32.9c18,28.8,28.4,60,30.3,93.1
	c1.7,29.6,1.3,59.3-9,88.5c-7.7,21.8-18.5,41.4-31.3,60.3c-15.7,23.2-38.9,37.1-65.9,43.3c-11.5,2.7-11.7,8.7-11.9,15.6
	c-1,27.1-0.2,54.3-2,81.3c-0.6,8.7,4,9.2,8.9,9.5c26.2,2.1,52.7,1.9,78.6,5.8c48,7.2,95.8,16.1,143.4,25.7
	c12.6,2.6,24.4,10,35.7,16.5c8.8,5,8.4,27.5,0,41.2c-3.8,6.1-8.1,12.4-13.5,17.1c-5.5,4.7-11.4,9.7-20,2
	c-20.8-18.8-46.4-29.5-73.4-36.7c-29.9-8-59.7-16.4-90.1-22C431.4,766.7,405.4,765.6,378.2,762.7z M393.6,585.7
	c13.8,4.8,30,1.5,37.5-7.7c17.6-21.5,29.6-45.5,29.8-73.4c0.4-37.6,0-75.2-0.9-112.8c-0.5-23.5-10.3-44.3-23.8-64.9
	c-8.5,13.4-17.5,26.5-21.1,41c-6.7,26.5-12.3,53.5-14.6,80.7C396.6,494.4,395.7,540.5,393.6,585.7z M316,758.6
	c-53.9,0-106.9,0-159.8,0c-0.6,1.2-1.2,2.5-1.8,3.7c10,8,19.4,17,30.1,23.8c25.1,15.8,52.3,26,83,21.4
	C290.7,803.9,313,782.2,316,758.6z"/>
<path class="st0" d="M1248.9,272.4c24.5,0.2,46.8,18.1,50.3,36.5c1.8,9.8-8.8,21.4-21.6,23.7c-18.2,3.3-53.7-23.1-42.2-46.8
	C1238.5,279.6,1245.9,275.3,1248.9,272.4z"/>
</svg>
